# xmcd
#
# Track frame offsets:
# 150
# 20987
# 45212
# 67362
# 89875
# 109187
# 135137
# 153537
# 173312
# 195062
# 221550
# 240862
#
# Disc length: 3586 seconds
#
#
# Revision: 0
# Processed by: cddbd v1.5.2PL0 Copyright (c) Steve Scherf et al.
# Submitted via: FreeRIP 2.96 
#
DISCID=970e000c
DTITLE=黃鶯鶯 - 紅粉知己
DYEAR=1900
DGENRE=Pop-Folk
TTITLE0=哭砂
TTITLE1=黑夜白天
TTITLE2=夢不到你
TTITLE3=雪在燒
TTITLE4=我不在乎
TTITLE5=讓愛自由
TTITLE6=留不住的故事
TTITLE7=愛-千年不醒
TTITLE8=心泣
TTITLE9=風的心
TTITLE10=日安-我的愛
TTITLE11=來自心海的消息
EXTD=
EXTT0=
EXTT1=
EXTT2=
EXTT3=
EXTT4=
EXTT5=
EXTT6=
EXTT7=
EXTT8=
EXTT9=
EXTT10=
EXTT11=
PLAYORDER=
